<?xml version="1.0" encoding="UTF-8" standalone="no" ?>
<!DOCTYPE svg PUBLIC "-//W3C//DTD SVG 1.1//EN" "http://www.w3.org/Graphics/SVG/1.1/DTD/svg11.dtd">
<svg xmlns="http://www.w3.org/2000/svg" version="1.1" width="500" height="500" viewBox="0 0 500 500" xml:space="preserve">
<desc>Created with Fabric.js 4.6.0</desc>
<defs>
</defs>
<g transform="matrix(0.97 -0.26 0.26 0.97 235.4 214.49)" id="Oa0qtOP4N7Z-UhE0EWOXc"  >
<g style="" vector-effect="non-scaling-stroke"   >
		<g transform="matrix(0.13 0 0 -0.13 -0.2 0.06)" id="xHncj-BHRpaq8yZSkW1B_"  >
<path style="stroke: none; stroke-width: 1; stroke-dasharray: none; stroke-linecap: butt; stroke-dashoffset: 0; stroke-linejoin: miter; stroke-miterlimit: 4; fill: rgb(0,0,0); fill-rule: nonzero; opacity: 1;" vector-effect="non-scaling-stroke"  transform=" translate(-1798.47, -1589.53)" d="M 1763 3161 C 1698 3139 1649 3102 1609 3044 C 1569 2985 1546 2919 1515 2768 C 1500 2700 1486 2637 1483 2626 C 1475 2598 1334 2455 1280 2420 C 1254 2403 1204 2378 1169 2365 C 1134 2351 1089 2323 1068 2303 C 1032 2268 990 2181 990 2141 C 990 2110 951 2071 888 2039 C 793 1991 735 1930 685 1825 C 661 1776 627 1721 608 1704 C 590 1687 526 1647 465 1615 C 405 1583 336 1542 313 1523 C 271 1490 210 1386 210 1348 C 210 1309 167 1241 104 1181 C -24 1060 -30 979 77 823 C 123 756 128 710 104 544 C 83 393 80 197 99 123 C 127 9 250 -31 387 30 C 526 91 559 199 501 396 C 464 518 430 646 430 659 C 430 665 442 665 462 659 C 562 631 600 659 626 779 C 643 856 645 860 674 865 C 691 868 833 886 990 905 C 1147 924 1291 942 1311 946 L 1347 951 L 1354 835 C 1360 716 1367 692 1403 652 C 1454 597 1586 643 1629 733 C 1651 779 1670 868 1670 931 L 1670 967 L 1863 989 C 1968 1002 2167 1025 2303 1041 C 2439 1057 2563 1070 2579 1070 C 2594 1070 2637 1054 2674 1034 C 2755 991 2780 994 2836 1051 C 2877 1093 2910 1106 3005 1115 C 3566 1167 3550 1164 3576 1218 C 3592 1250 3595 1279 3595 1420 C 3595 1598 3582 1686 3533 1835 C 3411 2210 3045 2632 2601 2908 C 2484 2980 2271 3089 2175 3125 C 2037 3177 1856 3193 1763 3161 z M 2007 2904 C 2290 2829 2651 2605 2847 2383 C 2944 2273 3200 1936 3192 1929 C 3183 1920 2964 1830 2952 1830 C 2948 1830 2935 1856 2925 1888 C 2898 1967 2820 2083 2743 2158 C 2616 2283 2447 2377 2078 2529 C 1876 2612 1838 2621 1804 2595 C 1787 2582 1690 2573 1690 2584 C 1690 2606 1734 2808 1746 2841 C 1782 2946 1818 2954 2007 2904 z M 1697 2475 C 1739 2457 1791 2455 1807 2471 C 1830 2494 1892 2480 2040 2421 C 2308 2312 2429 2241 2555 2116 C 2674 1999 2739 1886 2827 1642 C 2865 1534 2866 1525 2840 1446 C 2828 1412 2820 1360 2820 1324 L 2820 1262 L 2893 1254 L 2965 1246 L 2904 1239 C 2835 1231 2769 1201 2746 1169 C 2732 1149 2728 1148 2700 1160 C 2660 1177 2640 1216 2640 1279 C 2640 1340 2620 1480 2611 1480 C 2608 1480 2556 1464 2495 1444 C 2380 1407 2386 1407 2232 1427 C 2196 1431 2182 1427 2138 1399 C 2092 1369 2077 1365 1989 1360 C 1895 1354 1891 1353 1851 1318 C 1822 1291 1788 1274 1723 1254 C 1626 1225 1585 1201 1573 1167 C 1569 1155 1565 1063 1565 963 C 1565 787 1564 781 1542 757 C 1504 717 1481 716 1465 753 C 1445 802 1411 1042 1421 1062 C 1426 1071 1430 1095 1430 1114 C 1430 1169 1398 1185 1312 1174 C 1201 1160 1130 1165 1081 1190 C 1045 1208 1024 1211 974 1208 C 895 1203 839 1168 808 1105 L 787 1061 L 808 1006 C 823 967 826 950 817 950 C 766 950 565 918 560 909 C 556 904 547 860 540 814 L 528 729 L 474 736 C 333 753 314 677 396 420 C 459 218 453 150 369 116 C 292 85 213 103 192 157 C 170 213 169 239 190 415 C 231 767 231 779 161 888 C 139 921 119 957 116 968 C 109 990 134 1050 149 1050 C 167 1050 271 1153 294 1194 C 307 1216 328 1266 340 1304 C 370 1395 407 1430 561 1510 C 734 1600 788 1654 829 1783 C 849 1845 924 1912 1007 1944 C 1102 1980 1136 2018 1145 2097 C 1155 2172 1171 2202 1212 2222 C 1230 2231 1281 2255 1325 2276 C 1389 2306 1420 2329 1491 2402 C 1573 2485 1580 2490 1619 2490 C 1642 2490 1677 2483 1697 2475 z M 3302 1580 L 3339 1569 L 3333 1512 C 3323 1412 3334 1420 3124 1372 C 3020 1349 2932 1330 2928 1330 C 2915 1330 2919 1405 2935 1452 C 2968 1548 3069 1605 3195 1596 C 3234 1593 3282 1586 3302 1580 z M 2540 1310 L 2540 1270 L 2373 1270 C 2223 1271 2208 1272 2231 1285 C 2251 1296 2265 1296 2299 1288 C 2351 1275 2426 1289 2485 1324 C 2507 1337 2528 1349 2533 1349 C 2537 1350 2540 1332 2540 1310 z" stroke-linecap="round" />
</g>
		<g transform="matrix(0.13 0 0 -0.13 -7.72 -57.27)" id="egoqC-Oy8Xt_JnJVMWHqQ"  >
<path style="stroke: none; stroke-width: 1; stroke-dasharray: none; stroke-linecap: butt; stroke-dashoffset: 0; stroke-linejoin: miter; stroke-miterlimit: 4; fill: rgb(0,0,0); fill-rule: nonzero; opacity: 1;" vector-effect="non-scaling-stroke"  transform=" translate(-1742.14, -2019.51)" d="M 1732 2185 C 1534 2147 1477 2127 1420 2071 C 1378 2031 1370 2018 1370 1988 C 1370 1961 1377 1946 1395 1932 C 1418 1914 1695 1830 1732 1830 C 1741 1830 1786 1842 1832 1856 C 2005 1911 2092 1957 2111 2007 C 2138 2077 1992 2211 1890 2209 C 1871 2209 1800 2198 1732 2185 z M 1889 2094 C 1912 2085 1930 2075 1930 2071 C 1930 2068 1847 2056 1745 2045 C 1643 2034 1560 2027 1560 2030 C 1560 2040 1652 2093 1693 2106 C 1743 2123 1832 2117 1889 2094 z" stroke-linecap="round" />
</g>
		<g transform="matrix(0.13 0 0 -0.13 66.54 -14.16)" id="JA54VTIEoMyFNvygr1c4w"  >
<path style="stroke: none; stroke-width: 1; stroke-dasharray: none; stroke-linecap: butt; stroke-dashoffset: 0; stroke-linejoin: miter; stroke-miterlimit: 4; fill: rgb(0,0,0); fill-rule: nonzero; opacity: 1;" vector-effect="non-scaling-stroke"  transform=" translate(-2299.05, -1696.18)" d="M 2335 1889 C 2247 1876 2173 1852 2097 1813 C 1988 1755 1963 1703 2020 1650 C 2068 1605 2190 1538 2266 1514 L 2337 1493 L 2398 1534 C 2503 1605 2599 1689 2606 1717 C 2615 1752 2589 1799 2529 1855 C 2476 1905 2461 1907 2335 1889 z M 2410 1794 C 2432 1785 2450 1775 2450 1771 C 2450 1762 2339 1720 2296 1713 C 2276 1710 2247 1713 2230 1720 C 2200 1732 2200 1733 2217 1753 C 2267 1809 2335 1824 2410 1794 z" stroke-linecap="round" />
</g>
		<g transform="matrix(0.13 0 0 -0.13 -90.27 23.44)" id="mzGsAylXTn3cvND_fen-d"  >
<path style="stroke: none; stroke-width: 1; stroke-dasharray: none; stroke-linecap: butt; stroke-dashoffset: 0; stroke-linejoin: miter; stroke-miterlimit: 4; fill: rgb(0,0,0); fill-rule: nonzero; opacity: 1;" vector-effect="non-scaling-stroke"  transform=" translate(-1123, -1414.18)" d="M 1125 1564 C 977 1538 876 1461 876 1375 C 876 1311 964 1250 1055 1250 C 1099 1250 1114 1257 1218 1328 C 1344 1413 1370 1439 1370 1480 C 1370 1515 1329 1557 1281 1570 C 1237 1582 1227 1582 1125 1564 z" stroke-linecap="round" />
</g>
</g>
</g>
</svg>