<?xml version="1.0" standalone="no"?>
<!DOCTYPE svg PUBLIC "-//W3C//DTD SVG 20010904//EN"
 "http://www.w3.org/TR/2001/REC-SVG-20010904/DTD/svg10.dtd">
<svg version="1.0" xmlns="http://www.w3.org/2000/svg"
 width="980.000000pt" height="982.000000pt" viewBox="0 0 980.000000 982.000000"
 preserveAspectRatio="xMidYMid meet">

<g transform="translate(0.000000,982.000000) scale(0.100000,-0.100000)"
fill="#000000" stroke="none">
<path d="M4600 9809 c-151 -8 -404 -40 -594 -75 -616 -112 -1263 -379 -1809
-746 -448 -301 -885 -715 -1215 -1150 -500 -659 -837 -1466 -942 -2253 -54
-400 -51 -986 6 -1390 80 -563 292 -1162 603 -1704 330 -575 784 -1090 1316
-1492 577 -436 1280 -755 1980 -899 483 -99 1061 -119 1570 -54 890 113 1725
474 2461 1062 126 100 440 406 588 571 215 241 375 457 533 719 314 523 521
1067 633 1665 51 272 63 436 64 872 0 351 -2 407 -22 560 -130 968 -499 1805
-1132 2565 -133 159 -438 464 -600 599 -708 592 -1504 955 -2417 1105 -222 37
-742 59 -1023 45z m625 -420 c653 -44 1267 -220 1828 -525 1305 -712 2136
-1948 2313 -3444 21 -183 30 -657 15 -847 -64 -802 -299 -1496 -728 -2152
-115 -176 -183 -266 -336 -444 -168 -196 -289 -317 -316 -317 -62 0 -507 193
-956 415 -485 239 -691 363 -837 503 l-78 75 0 139 c0 86 4 148 12 161 6 12
49 72 94 133 155 206 273 421 399 724 88 210 106 244 190 355 115 153 164 299
172 515 7 169 -8 254 -73 415 l-48 120 -8 490 c-9 569 -17 686 -58 852 -178
727 -704 1167 -1530 1279 -152 21 -545 24 -695 5 -675 -83 -1178 -423 -1439
-973 -141 -294 -155 -402 -176 -1270 l-9 -418 -40 -92 c-64 -152 -75 -204 -76
-368 0 -121 4 -160 24 -235 31 -120 84 -231 163 -340 79 -110 106 -163 192
-375 104 -255 219 -463 360 -648 131 -173 121 -147 124 -305 2 -92 0 -149 -8
-168 -7 -16 -41 -56 -76 -89 -128 -119 -307 -226 -754 -449 -492 -245 -945
-444 -1042 -457 l-43 -6 -100 103 c-201 209 -384 433 -520 639 -403 610 -672
1356 -735 2035 -14 153 -14 834 0 985 43 463 202 1014 426 1478 107 222 161
318 299 527 296 450 708 872 1148 1178 677 472 1464 745 2332 811 73 5 416 -3
590 -15z m52 -1964 c295 -39 514 -114 698 -238 216 -146 377 -407 445 -721 25
-121 39 -476 40 -1029 l0 -358 55 -90 c84 -140 99 -186 100 -304 0 -135 -22
-183 -143 -308 -102 -106 -110 -120 -185 -322 -137 -373 -245 -563 -482 -846
l-87 -104 4 -270 c3 -266 4 -271 29 -325 72 -153 381 -399 779 -619 299 -166
940 -482 1099 -543 23 -8 21 -11 -40 -55 -650 -473 -1417 -769 -2197 -848
-880 -88 -1757 65 -2502 436 -297 149 -731 425 -703 449 4 4 139 67 298 140
778 357 1193 598 1457 848 166 158 182 208 176 557 -5 265 0 248 -109 374
-200 232 -337 477 -453 809 -59 171 -77 204 -151 282 -153 161 -181 222 -172
376 6 104 19 140 97 269 l50 83 0 208 c1 371 19 1027 30 1108 34 235 146 478
298 646 194 214 511 357 882 399 135 15 558 12 687 -4z"/>
</g>
</svg>
